<?xml version="1.0" standalone="no"?>
<!DOCTYPE svg PUBLIC "-//W3C//DTD SVG 20010904//EN"
 "http://www.w3.org/TR/2001/REC-SVG-20010904/DTD/svg10.dtd">
<svg version="1.0" xmlns="http://www.w3.org/2000/svg"
 width="400.000000pt" height="400.000000pt" viewBox="0 0 400.000000 400.000000"
 preserveAspectRatio="xMidYMid meet">
<metadata>
Created by potrace 1.11, written by Peter Selinger 2001-2013
</metadata>
<g transform="translate(0.000000,400.000000) scale(0.100000,-0.100000)"
fill="#000000" stroke="none">
<path d="M0 2000 l0 -2000 2000 0 2000 0 0 2000 0 2000 -2000 0 -2000 0 0
-2000z m2393 456 c51 -25 101 -75 129 -128 18 -34 23 -59 23 -123 0 -94 -20
-140 -87 -204 -70 -68 -89 -71 -457 -70 -223 0 -336 4 -358 12 -60 22 -117 72
-148 128 -26 47 -30 64 -30 134 0 69 4 87 28 131 30 53 99 113 152 132 20 7
149 10 370 9 311 -2 343 -4 378 -21z m-820 -747 c33 -18 37 -28 37 -111 0 -77
0 -78 -25 -78 -14 0 -25 5 -25 10 0 6 -9 10 -20 10 -11 0 -20 -4 -20 -10 0 -5
-13 -10 -30 -10 l-30 0 0 64 c0 78 12 113 42 126 31 12 46 12 71 -1z m-263
-34 c0 -32 2 -35 30 -35 28 0 30 3 30 35 0 32 2 35 30 35 l30 0 0 -95 0 -95
-30 0 c-28 0 -30 3 -30 35 0 32 -2 35 -30 35 -28 0 -30 -3 -30 -35 0 -31 -3
-35 -25 -35 -25 0 -25 0 -25 95 0 95 0 95 25 95 22 0 25 -4 25 -35z m470 15
c40 -40 15 -106 -43 -112 -27 -2 -33 -8 -35 -30 -3 -22 -9 -28 -28 -28 -24 0
-24 1 -24 95 l0 95 55 0 c42 0 60 -5 75 -20z m172 3 c22 -20 24 -76 2 -97 -8
-9 -29 -16 -45 -16 -26 0 -29 -3 -29 -30 0 -27 -3 -30 -30 -30 l-30 0 0 95 0
95 57 0 c38 0 62 -5 75 -17z m98 -17 c0 -19 5 -38 12 -42 14 -9 38 23 38 53 0
18 6 23 25 23 23 0 25 -4 25 -40 0 -30 -7 -47 -25 -66 -15 -15 -25 -36 -25
-54 0 -25 -4 -30 -25 -30 -21 0 -25 5 -25 31 0 21 -8 37 -25 51 -20 15 -25 28
-25 64 0 40 2 44 25 44 22 0 25 -4 25 -34z m306 26 c24 -16 34 -50 23 -79 -13
-34 -26 -43 -61 -43 -24 0 -28 -4 -28 -30 0 -25 -4 -30 -25 -30 -25 0 -25 0
-25 95 l0 95 53 0 c28 0 57 -4 63 -8z m104 -87 c0 -95 0 -95 -25 -95 -25 0
-25 0 -25 95 0 95 0 95 25 95 25 0 25 0 25 -95z m92 23 c3 -71 4 -73 31 -76
19 -2 27 -9 27 -23 0 -16 -7 -19 -55 -19 l-55 0 0 95 c0 94 0 95 25 95 23 0
24 -3 27 -72z m140 0 c3 -71 4 -73 31 -76 19 -2 27 -9 27 -23 0 -16 -7 -19
-55 -19 l-55 0 0 95 c0 94 0 95 25 95 23 0 24 -3 27 -72z"/>
<path d="M2040 2206 l0 -236 128 0 c70 0 143 5 163 10 53 15 100 50 134 100
27 41 30 52 30 127 0 74 -3 85 -30 124 -17 24 -53 57 -79 74 -48 29 -53 30
-198 34 l-148 3 0 -236z m326 134 c46 -29 78 -99 70 -153 -9 -53 -40 -104 -76
-122 -16 -8 -31 -15 -35 -15 -3 0 -5 70 -5 155 0 85 3 155 6 155 4 0 21 -9 40
-20z m-178 -9 c8 -5 12 -17 10 -27 -2 -14 -12 -19 -38 -19 -26 0 -36 5 -38 19
-4 20 13 36 38 36 8 0 21 -4 28 -9z m10 -228 c2 -14 -3 -23 -17 -28 -30 -9
-61 3 -61 24 0 26 10 32 45 29 22 -2 31 -9 33 -25z"/>
<path d="M1686 2340 c-72 -46 -95 -141 -53 -213 21 -38 71 -77 82 -65 3 3 4
71 3 151 l-3 147 -29 -20z"/>
<path d="M1862 2331 c-8 -5 -12 -17 -10 -27 4 -25 50 -30 68 -8 12 14 12 18
-5 30 -22 16 -34 17 -53 5z"/>
<path d="M1857 2123 c-14 -13 -6 -42 13 -48 20 -6 60 9 60 23 0 24 -55 43 -73
25z"/>
<path d="M1527 1664 c-4 -4 -7 -22 -7 -41 0 -27 4 -33 21 -33 17 0 20 5 17 37
-3 35 -17 51 -31 37z"/>
<path d="M1702 1643 c4 -20 18 -26 37 -14 18 12 5 31 -20 31 -14 0 -19 -6 -17
-17z"/>
<path d="M1880 1640 c0 -22 1 -23 24 -14 23 9 20 34 -4 34 -13 0 -20 -7 -20
-20z"/>
<path d="M2290 1639 c0 -25 33 -22 38 4 2 12 -3 17 -17 17 -15 0 -21 -6 -21
-21z"/>
</g>
</svg>
